<mxfile host="app.diagrams.net" modified="2023-06-06T11:12:34.369Z" agent="Mozilla/5.0 (Windows NT 10.0; Win64; x64) AppleWebKit/537.36 (KHTML, like Gecko) Chrome/114.0.0.0 Safari/537.36" etag="-cqf-k_8URMmCa0Mvtgh" version="21.3.2" type="device">
  <diagram name="第 1 页" id="d2snv7xbq5d5esvcn7D7">
    <mxGraphModel dx="977" dy="489" grid="1" gridSize="10" guides="1" tooltips="1" connect="1" arrows="1" fold="1" page="1" pageScale="1" pageWidth="827" pageHeight="1169" math="0" shadow="0">
      <root>
        <mxCell id="0" />
        <mxCell id="1" parent="0" />
        <mxCell id="GJQ3-sK-Qn5VXlBNW7nS-4" value="&lt;font style=&quot;font-size: 20px;&quot;&gt;2&lt;/font&gt;" style="rounded=0;whiteSpace=wrap;html=1;" parent="1" vertex="1">
          <mxGeometry x="240" y="190" width="40" height="40" as="geometry" />
        </mxCell>
        <mxCell id="GJQ3-sK-Qn5VXlBNW7nS-5" value="&lt;font style=&quot;font-size: 20px;&quot;&gt;1&lt;/font&gt;" style="rounded=0;whiteSpace=wrap;html=1;" parent="1" vertex="1">
          <mxGeometry x="240" y="240" width="40" height="40" as="geometry" />
        </mxCell>
        <mxCell id="GJQ3-sK-Qn5VXlBNW7nS-6" value="&lt;font style=&quot;font-size: 20px;&quot;&gt;1&lt;/font&gt;" style="rounded=0;whiteSpace=wrap;html=1;" parent="1" vertex="1">
          <mxGeometry x="240" y="290" width="40" height="40" as="geometry" />
        </mxCell>
        <mxCell id="axuG9_o2A7aeRrAM5aPq-17" style="edgeStyle=orthogonalEdgeStyle;rounded=0;orthogonalLoop=1;jettySize=auto;html=1;entryX=0;entryY=0.5;entryDx=0;entryDy=0;" edge="1" parent="1" source="GJQ3-sK-Qn5VXlBNW7nS-49" target="axuG9_o2A7aeRrAM5aPq-5">
          <mxGeometry relative="1" as="geometry" />
        </mxCell>
        <mxCell id="GJQ3-sK-Qn5VXlBNW7nS-49" value="" style="rounded=0;whiteSpace=wrap;html=1;" parent="1" vertex="1">
          <mxGeometry x="280" y="190" width="40" height="40" as="geometry" />
        </mxCell>
        <mxCell id="axuG9_o2A7aeRrAM5aPq-19" style="edgeStyle=orthogonalEdgeStyle;rounded=0;orthogonalLoop=1;jettySize=auto;html=1;entryX=0;entryY=0.5;entryDx=0;entryDy=0;" edge="1" parent="1" source="GJQ3-sK-Qn5VXlBNW7nS-50" target="axuG9_o2A7aeRrAM5aPq-11">
          <mxGeometry relative="1" as="geometry" />
        </mxCell>
        <mxCell id="GJQ3-sK-Qn5VXlBNW7nS-50" value="" style="rounded=0;whiteSpace=wrap;html=1;" parent="1" vertex="1">
          <mxGeometry x="280" y="240" width="40" height="40" as="geometry" />
        </mxCell>
        <mxCell id="axuG9_o2A7aeRrAM5aPq-20" style="edgeStyle=orthogonalEdgeStyle;rounded=0;orthogonalLoop=1;jettySize=auto;html=1;entryX=0;entryY=0.5;entryDx=0;entryDy=0;" edge="1" parent="1" source="GJQ3-sK-Qn5VXlBNW7nS-51" target="axuG9_o2A7aeRrAM5aPq-15">
          <mxGeometry relative="1" as="geometry" />
        </mxCell>
        <mxCell id="GJQ3-sK-Qn5VXlBNW7nS-51" value="" style="rounded=0;whiteSpace=wrap;html=1;" parent="1" vertex="1">
          <mxGeometry x="280" y="290" width="40" height="40" as="geometry" />
        </mxCell>
        <mxCell id="-TpwQtiW3YBbiiDqq7ZP-8" value="&lt;span style=&quot;font-family: Helvetica; font-size: 20px; font-style: normal; font-variant-ligatures: normal; font-variant-caps: normal; font-weight: 400; letter-spacing: normal; orphans: 2; text-align: center; text-indent: 0px; text-transform: none; widows: 2; word-spacing: 0px; -webkit-text-stroke-width: 0px; background-color: rgb(251, 251, 251); text-decoration-thickness: initial; text-decoration-style: initial; text-decoration-color: initial; float: none; display: inline !important;&quot;&gt;&lt;font color=&quot;#cc0000&quot;&gt;head node&lt;/font&gt;&lt;/span&gt;" style="rounded=1;whiteSpace=wrap;html=1;" parent="1" vertex="1">
          <mxGeometry x="340" y="150" width="100" height="30" as="geometry" />
        </mxCell>
        <mxCell id="-TpwQtiW3YBbiiDqq7ZP-9" value="&lt;span style=&quot;font-family: Helvetica; font-size: 20px; font-style: normal; font-variant-ligatures: normal; font-variant-caps: normal; font-weight: 400; letter-spacing: normal; orphans: 2; text-align: center; text-indent: 0px; text-transform: none; widows: 2; word-spacing: 0px; -webkit-text-stroke-width: 0px; background-color: rgb(251, 251, 251); text-decoration-thickness: initial; text-decoration-style: initial; text-decoration-color: initial; float: none; display: inline !important;&quot;&gt;&lt;font color=&quot;#cc0000&quot;&gt;successors&lt;/font&gt;&lt;/span&gt;" style="rounded=1;whiteSpace=wrap;html=1;" parent="1" vertex="1">
          <mxGeometry x="580" y="315" width="110" height="30" as="geometry" />
        </mxCell>
        <mxCell id="-TpwQtiW3YBbiiDqq7ZP-10" value="" style="endArrow=classic;html=1;rounded=0;" parent="1" edge="1">
          <mxGeometry width="50" height="50" relative="1" as="geometry">
            <mxPoint x="580" y="330" as="sourcePoint" />
            <mxPoint x="540" y="310" as="targetPoint" />
          </mxGeometry>
        </mxCell>
        <mxCell id="axuG9_o2A7aeRrAM5aPq-1" value="&lt;font style=&quot;font-size: 20px;&quot;&gt;0&lt;/font&gt;" style="rounded=0;whiteSpace=wrap;html=1;" vertex="1" parent="1">
          <mxGeometry x="240" y="340" width="40" height="40" as="geometry" />
        </mxCell>
        <mxCell id="axuG9_o2A7aeRrAM5aPq-2" value="NULL" style="rounded=0;whiteSpace=wrap;html=1;" vertex="1" parent="1">
          <mxGeometry x="280" y="340" width="40" height="40" as="geometry" />
        </mxCell>
        <mxCell id="axuG9_o2A7aeRrAM5aPq-3" value="&lt;font style=&quot;font-size: 20px;&quot;&gt;1&lt;/font&gt;" style="rounded=0;whiteSpace=wrap;html=1;" vertex="1" parent="1">
          <mxGeometry x="240" y="390" width="40" height="40" as="geometry" />
        </mxCell>
        <mxCell id="axuG9_o2A7aeRrAM5aPq-21" style="edgeStyle=orthogonalEdgeStyle;rounded=0;orthogonalLoop=1;jettySize=auto;html=1;entryX=0;entryY=0.5;entryDx=0;entryDy=0;" edge="1" parent="1" source="axuG9_o2A7aeRrAM5aPq-4" target="axuG9_o2A7aeRrAM5aPq-13">
          <mxGeometry relative="1" as="geometry" />
        </mxCell>
        <mxCell id="axuG9_o2A7aeRrAM5aPq-4" value="" style="rounded=0;whiteSpace=wrap;html=1;" vertex="1" parent="1">
          <mxGeometry x="280" y="390" width="40" height="40" as="geometry" />
        </mxCell>
        <mxCell id="axuG9_o2A7aeRrAM5aPq-5" value="&lt;font style=&quot;font-size: 20px;&quot;&gt;2&lt;/font&gt;" style="rounded=0;whiteSpace=wrap;html=1;" vertex="1" parent="1">
          <mxGeometry x="440" y="190" width="40" height="40" as="geometry" />
        </mxCell>
        <mxCell id="axuG9_o2A7aeRrAM5aPq-18" style="edgeStyle=orthogonalEdgeStyle;rounded=0;orthogonalLoop=1;jettySize=auto;html=1;entryX=0;entryY=0.5;entryDx=0;entryDy=0;" edge="1" parent="1" source="axuG9_o2A7aeRrAM5aPq-6" target="axuG9_o2A7aeRrAM5aPq-9">
          <mxGeometry relative="1" as="geometry" />
        </mxCell>
        <mxCell id="axuG9_o2A7aeRrAM5aPq-6" value="" style="rounded=0;whiteSpace=wrap;html=1;" vertex="1" parent="1">
          <mxGeometry x="480" y="190" width="40" height="40" as="geometry" />
        </mxCell>
        <mxCell id="axuG9_o2A7aeRrAM5aPq-9" value="&lt;font style=&quot;font-size: 20px;&quot;&gt;3&lt;/font&gt;" style="rounded=0;whiteSpace=wrap;html=1;" vertex="1" parent="1">
          <mxGeometry x="640" y="190" width="40" height="40" as="geometry" />
        </mxCell>
        <mxCell id="axuG9_o2A7aeRrAM5aPq-10" value="NULL" style="rounded=0;whiteSpace=wrap;html=1;" vertex="1" parent="1">
          <mxGeometry x="680" y="190" width="40" height="40" as="geometry" />
        </mxCell>
        <mxCell id="axuG9_o2A7aeRrAM5aPq-11" value="&lt;font style=&quot;font-size: 20px;&quot;&gt;5&lt;/font&gt;" style="rounded=0;whiteSpace=wrap;html=1;" vertex="1" parent="1">
          <mxGeometry x="440" y="240" width="40" height="40" as="geometry" />
        </mxCell>
        <mxCell id="axuG9_o2A7aeRrAM5aPq-12" value="NULL" style="rounded=0;whiteSpace=wrap;html=1;" vertex="1" parent="1">
          <mxGeometry x="480" y="240" width="40" height="40" as="geometry" />
        </mxCell>
        <mxCell id="axuG9_o2A7aeRrAM5aPq-13" value="&lt;font style=&quot;font-size: 20px;&quot;&gt;4&lt;/font&gt;" style="rounded=0;whiteSpace=wrap;html=1;" vertex="1" parent="1">
          <mxGeometry x="440" y="390" width="40" height="40" as="geometry" />
        </mxCell>
        <mxCell id="axuG9_o2A7aeRrAM5aPq-14" value="NULL" style="rounded=0;whiteSpace=wrap;html=1;" vertex="1" parent="1">
          <mxGeometry x="480" y="390" width="40" height="40" as="geometry" />
        </mxCell>
        <mxCell id="axuG9_o2A7aeRrAM5aPq-15" value="&lt;font style=&quot;font-size: 20px;&quot;&gt;4&lt;/font&gt;" style="rounded=0;whiteSpace=wrap;html=1;" vertex="1" parent="1">
          <mxGeometry x="440" y="290" width="40" height="40" as="geometry" />
        </mxCell>
        <mxCell id="axuG9_o2A7aeRrAM5aPq-16" value="NULL" style="rounded=0;whiteSpace=wrap;html=1;" vertex="1" parent="1">
          <mxGeometry x="480" y="290" width="40" height="40" as="geometry" />
        </mxCell>
        <mxCell id="axuG9_o2A7aeRrAM5aPq-23" value="" style="endArrow=classic;html=1;rounded=0;" edge="1" parent="1">
          <mxGeometry width="50" height="50" relative="1" as="geometry">
            <mxPoint x="640" y="315" as="sourcePoint" />
            <mxPoint x="680" y="250" as="targetPoint" />
          </mxGeometry>
        </mxCell>
        <mxCell id="axuG9_o2A7aeRrAM5aPq-29" value="" style="endArrow=classic;html=1;rounded=0;exitX=-0.045;exitY=0.489;exitDx=0;exitDy=0;exitPerimeter=0;" edge="1" parent="1" source="-TpwQtiW3YBbiiDqq7ZP-8">
          <mxGeometry width="50" height="50" relative="1" as="geometry">
            <mxPoint x="290" y="150" as="sourcePoint" />
            <mxPoint x="310" y="180" as="targetPoint" />
          </mxGeometry>
        </mxCell>
        <mxCell id="axuG9_o2A7aeRrAM5aPq-30" value="index: 1" style="text;strokeColor=none;fillColor=none;align=left;verticalAlign=middle;spacingLeft=4;spacingRight=4;overflow=hidden;points=[[0,0.5],[1,0.5]];portConstraint=eastwest;rotatable=0;whiteSpace=wrap;html=1;" vertex="1" parent="1">
          <mxGeometry x="180" y="195" width="60" height="30" as="geometry" />
        </mxCell>
        <mxCell id="axuG9_o2A7aeRrAM5aPq-33" value="index: 2" style="text;strokeColor=none;fillColor=none;align=left;verticalAlign=middle;spacingLeft=4;spacingRight=4;overflow=hidden;points=[[0,0.5],[1,0.5]];portConstraint=eastwest;rotatable=0;whiteSpace=wrap;html=1;" vertex="1" parent="1">
          <mxGeometry x="180" y="245" width="60" height="30" as="geometry" />
        </mxCell>
        <mxCell id="axuG9_o2A7aeRrAM5aPq-34" value="index: 3" style="text;strokeColor=none;fillColor=none;align=left;verticalAlign=middle;spacingLeft=4;spacingRight=4;overflow=hidden;points=[[0,0.5],[1,0.5]];portConstraint=eastwest;rotatable=0;whiteSpace=wrap;html=1;" vertex="1" parent="1">
          <mxGeometry x="180" y="295" width="60" height="30" as="geometry" />
        </mxCell>
        <mxCell id="axuG9_o2A7aeRrAM5aPq-35" value="index: 4" style="text;strokeColor=none;fillColor=none;align=left;verticalAlign=middle;spacingLeft=4;spacingRight=4;overflow=hidden;points=[[0,0.5],[1,0.5]];portConstraint=eastwest;rotatable=0;whiteSpace=wrap;html=1;" vertex="1" parent="1">
          <mxGeometry x="180" y="345" width="60" height="30" as="geometry" />
        </mxCell>
        <mxCell id="axuG9_o2A7aeRrAM5aPq-36" value="index: 5" style="text;strokeColor=none;fillColor=none;align=left;verticalAlign=middle;spacingLeft=4;spacingRight=4;overflow=hidden;points=[[0,0.5],[1,0.5]];portConstraint=eastwest;rotatable=0;whiteSpace=wrap;html=1;" vertex="1" parent="1">
          <mxGeometry x="180" y="395" width="60" height="30" as="geometry" />
        </mxCell>
        <mxCell id="axuG9_o2A7aeRrAM5aPq-37" value="&lt;span style=&quot;font-family: Helvetica; font-size: 20px; font-style: normal; font-variant-ligatures: normal; font-variant-caps: normal; font-weight: 400; letter-spacing: normal; orphans: 2; text-align: center; text-indent: 0px; text-transform: none; widows: 2; word-spacing: 0px; -webkit-text-stroke-width: 0px; background-color: rgb(251, 251, 251); text-decoration-thickness: initial; text-decoration-style: initial; text-decoration-color: initial; float: none; display: inline !important;&quot;&gt;&lt;font color=&quot;#cc0000&quot;&gt;preCount&lt;/font&gt;&lt;/span&gt;" style="rounded=1;whiteSpace=wrap;html=1;" vertex="1" parent="1">
          <mxGeometry x="330" y="440" width="100" height="30" as="geometry" />
        </mxCell>
        <mxCell id="axuG9_o2A7aeRrAM5aPq-39" value="" style="endArrow=classic;html=1;rounded=0;" edge="1" parent="1" target="axuG9_o2A7aeRrAM5aPq-3">
          <mxGeometry width="50" height="50" relative="1" as="geometry">
            <mxPoint x="330" y="450" as="sourcePoint" />
            <mxPoint x="310" y="480" as="targetPoint" />
          </mxGeometry>
        </mxCell>
      </root>
    </mxGraphModel>
  </diagram>
</mxfile>
